# xmcd CD database file
#
# Track frame offsets:
#	150
#	14478
#	27314
#	41882
#	56158
#	72326
#	83835
#	100108
#	116723
#	132984
#	148105
#	163583
#
# Disc length: 2365 seconds
#
# Revision: 2
# Processed by: cddbd v1.5.2PL0 Copyright (c) Steve Scherf et al.
# Submitted via: CDex 1.70beta2
#
DISCID=ad093b0c
DTITLE=Liv Marit Wedvik - Home Sweet Home
DYEAR=2005
DGENRE=Country
TTITLE0=Safe In The Arms
TTITLE1=Home Sweet Home
TTITLE2=What`s A Girl To Do
TTITLE3=Heartache
TTITLE4=Ain`t Worth The Tears
TTITLE5=My Baby Loves Me
TTITLE6=He`ll Be Leaving In The Morning
TTITLE7=`Till I Saw You
TTITLE8=I Don`t Anymore
TTITLE9=Dance All Night
TTITLE10=I`m No Angel
TTITLE11=Love Took A Sudden Fall
EXTD=YEAR: 2005
EXTT0=
EXTT1=
EXTT2=
EXTT3=
EXTT4=
EXTT5=
EXTT6=
EXTT7=
EXTT8=
EXTT9=
EXTT10=
EXTT11=
PLAYORDER=
